# xmcd
#
# Track frame offsets:
#	150
#	18200
#	30980
#	46310
#	61552
#	78780
#	95647
#	114335
#	130740
#	146510
#	165595
#	178745
#	195107
#
# Disc length: 2894 seconds
#
# Revision: 0
# Processed by: cddbd v1.4PL0 Copyright (c) Steve Scherf et al.
# Submitted via: dBpowerAMP V4.0
#
DISCID=900b4c0d
DTITLE=Billy Ray Cyrus - Live At The Ritz In New York
DYEAR=1900
DGENRE=Country
TTITLE0=Tell Me
TTITLE1=These Boots Are Made For Walking
TTITLE2=She's Not Crying Anymore
TTITLE3=When I Get Home
TTITLE4=Someday, Somewhere, Somehow
TTITLE5=Could've Been Me
TTITLE6=Almost Like You Were Here
TTITLE7=Never Thought I'd Fall In Love With You
TTITLE8=Ain't No Goodbye
TTITLE9=Some Gave All
TTITLE10=Only Time Will Tell
TTITLE11=It's The First Time
TTITLE12=Achy Breaky Heart
EXTD=
EXTT0=
EXTT1=
EXTT2=
EXTT3=
EXTT4=
EXTT5=
EXTT6=
EXTT7=
EXTT8=
EXTT9=
EXTT10=
EXTT11=
EXTT12=
PLAYORDER=
